<?xml version="1.0" encoding="UTF-8"?>
<!DOCTYPE svg PUBLIC "-//W3C//DTD SVG 1.1//EN" "http://www.w3.org/Graphics/SVG/1.1/DTD/svg11.dtd">
<!-- Creator: CorelDRAW -->
<svg xmlns="http://www.w3.org/2000/svg" xml:space="preserve" width="297mm" height="210mm" style="shape-rendering:geometricPrecision; text-rendering:geometricPrecision; image-rendering:optimizeQuality; fill-rule:evenodd; clip-rule:evenodd"
viewBox="0 0 297 210"
 xmlns:xlink="http://www.w3.org/1999/xlink">
 <defs>
  <style type="text/css">
   <![CDATA[
    .str1 {stroke:black;stroke-width:0.1;stroke-opacity:0.501961}
    .str0 {stroke:black;stroke-width:0.1}
    .str2 {stroke:black;stroke-width:0.5}
    .fil5 {fill:none}
    .fil0 {fill:white}
    .fil3 {fill:#C2C1C1;fill-rule:nonzero}
    .fil4 {fill:white;fill-rule:nonzero}
    .fil2 {fill:black;fill-rule:nonzero}
    .fil1 {fill:white;fill-rule:nonzero;fill-opacity:0.501961}
   ]]>
  </style>
 </defs>
 <g id="Plan_x0020_1">
  <metadata id="CorelCorpID_0Corel-Layer"/>
  <path class="fil0 str0" d="M113.749 167.29c0.8459,-0.0424 1.6865,-0.1871 2.3782,-0.6769 0.5292,-0.3746 1.0585,-0.7494 1.5876,-1.1241 0.5595,-0.3961 1.3226,-0.8164 1.8522,-1.252 0.5754,-0.4732 0.9689,-1.3021 1.2501,-1.9739 0.4564,-1.0901 1.393,-2.5305 2.4453,-3.1346 0.6518,-0.3742 1.335,-0.3832 1.9891,-0.6762 0.8184,-0.3666 0.669,-1.0247 0.9762,-1.6816 0.4778,-1.0216 0.589,-3.2313 0.2008,-4.3043 -0.2549,-0.7048 -0.0029,-1.1004 0.4288,-1.6358 0.5646,-0.7003 0.8529,-1.515 1.5147,-2.175 0.5775,-0.5759 1.5892,-1.73 2.2628,-2.1476 1.216,-0.7539 3.1968,0.1529 4.5804,-0.4935 0.8384,-0.3917 1.4682,-0.9247 1.9982,-1.6906 0.5262,-0.7604 1.3935,-1.2531 1.8522,-1.9923 0.0046,-0.0074 0.0311,-0.1119 0.0547,-0.1279 0.23,-0.156 1.1924,-1.6051 1.3778,-1.9191 0.2589,-0.4385 0.7273,-1.2655 0.8577,-1.709 0.1724,-0.5862 1.2508,-1.4323 1.6606,-1.7455 0.3086,-0.2359 0.575,-0.6912 0.8303,-0.9961 0.3066,-0.3661 0.6992,-0.7074 1.0493,-1.0235 0.6401,-0.5779 1.0823,-1.6439 1.9344,-2.2481 1.9937,-1.4138 5.1168,-2.4004 4.7756,-5.237 -0.0197,-0.1639 -0.14,-0.3348 -0.0949,-0.5113 0.1983,-0.7762 -0.1017,-1.4631 0.7756,-1.9739 0.8688,-0.5059 1.8862,0.2204 2.7555,-0.6489 0.9585,-0.9585 1.2833,-2.5683 2.0073,-3.7194 0.9004,-1.4317 -0.3492,-2.8772 0.5566,-4.1307 0.2659,-0.368 0.1762,-0.6141 0.3285,-0.9596 0.1837,-0.4168 0.8231,-0.716 1.0584,-1.2063 0.2645,-0.5513 0.5092,-1.1128 0.7938,-1.6541 0.0166,-0.0316 0.0837,-0.0108 0.0913,-0.0457 0.2474,-1.1285 0.6332,-1.341 1.688,-1.2977 1.5619,0.0641 2.5291,-1.6058 4.2975,-1.3799 2.1365,0.2729 1.967,-1.0414 2.6643,-2.5314 0.3421,-0.7311 -0.5305,-1.4161 -0.6113,-2.0745 -0.1573,-1.2804 1.6286,-2.6962 2.7464,-2.8695 2.1511,-0.3336 1.8123,-1.3078 2.6095,-2.9792 0.0468,-0.0981 0.0375,-0.062 0.0456,-0.1188 0.2495,-1.7478 -0.367,-4.5508 1.6424,-5.3188 1.0072,-0.3849 1.878,-0.188 2.9015,-0.3381 0.9141,-0.134 1.5433,-1.1382 1.9526,-1.8826 0.3452,-0.6278 0.6692,-1.2672 1.0037,-1.9008 0.1872,-0.3544 1.1471,-1.3527 1.323,-1.4713 0.7138,-0.4816 1.6188,-1.387 2.1716,-2.0471 0.3135,-0.3744 0.7196,-0.5907 1.1588,-0.7585 0.6519,-0.2491 0.9173,-0.5083 1.396,-0.9961 1.0719,-1.0924 -0.5158,-1.72 -0.876,-2.3669 -0.391,-0.7021 0.0497,-1.9811 0.6387,-2.4858 0.6608,-0.5662 3.1689,-1.05 4.033,-1.0875 1.9466,-0.0846 1.9029,-0.9887 1.4416,-2.5588 -0.3954,-1.3459 -0.9403,-1.5349 0.0456,-2.8513 0.6207,-0.8288 0.5842,-1.7834 1.907,-1.4896 0.7819,0.1736 1.226,0.8682 2.1533,0.8682 1.1254,0 2.1191,-0.419 3.0019,0.4661 0.5925,0.5941 0.3961,2.2726 1.1497,2.3212 0.4829,0.0311 0.8668,0.0755 0.9033,-0.7311 0.0206,-0.4569 -0.1021,-0.9063 0.073,-1.3342 0.3265,-0.7977 0.96,-1.6211 0.7938,-2.5406 -0.116,-0.6417 -1.7875,-1.5795 -2.2993,-2.0928 -0.9209,-0.9235 -2.3546,-0.2524 -2.7373,-1.6449 -0.2703,-0.9835 0.3684,-1.0655 1.3595,-1.4622 0.6203,-0.2482 1.3288,-0.2333 1.9343,-0.4752 1.2241,-0.4891 1.4889,-1.5859 2.5001,-2.2116 0.3433,-0.2124 0.9484,-0.1553 1.2135,-0.4843 0.358,-0.4442 0.4435,-1.0905 0.4654,-1.6633 0.0077,-0.2021 0.0177,-0.4205 0.0664,-0.623l0 0 -1.7909 -1.4515c-0.2364,-0.2121 -0.4087,-0.4306 -0.73,-0.4569 -0.1705,-0.014 -0.2523,-0.5436 -0.4106,-0.658 -0.6626,-0.4787 -1.6191,0.265 -1.2774,-1.0692 0.1574,-0.6145 -0.5855,-0.5099 -0.9763,-0.5849 -0.9463,-0.1815 -0.2919,-1.0206 -0.2919,-1.5353 0,-0.8426 -1.1833,-1.2937 -1.8249,-1.5627 -1.373,-0.5759 -1.17,-1.75 -2.0894,-2.5954 0,-0.4409 0.1642,-0.8293 0.1642,-1.2337 0,-0.4517 -0.2845,-0.6174 -0.5018,-0.9687 -0.5568,-0.8997 0.1025,-1.7097 -0.219,-2.3943 -0.246,-0.5236 -0.7649,-0.8829 -0.4927,-1.4988 0.2817,-0.6372 0.9452,-1.0296 0.3102,-1.8094 -0.3043,-1.3314 -1.0998,-2.9386 -1.9709,-3.9845 -0.8636,-1.0367 -1.0111,-2.5795 -1.8613,-3.555 0.0132,-0.0528 -0.101,-0.2679 -0.1095,-0.3564 -0.207,-0.6234 -0.6367,-1.1905 -0.8577,-1.8186 -0.1846,-0.5249 -0.0785,-0.969 -0.5931,-1.3251 -0.965,-0.6676 -1.0401,-1.7497 -1.8522,-2.4765l-1.2865 -1.1515c-0.4192,-0.3751 -0.2652,-0.7189 -0.4197,-1.1698 -0.0515,-0.6136 -0.7967,-0.961 -1.0858,-1.4165 -0.166,-0.2614 -0.1889,-1.3967 0.0182,-1.6541 0.2249,-0.2793 0.5173,-0.2935 0.6296,-0.7311 0.1344,-0.5242 0.0296,-0.6871 0.3376,-1.1332 0.3629,-0.5255 -0.2332,-1.1147 -0.1642,-1.6266 0.0421,-0.312 0.3859,-0.2849 0.5109,-0.6123l0.0183 -0.8682 0 0 -0.5475 -0.3199c-1.1725,-0.2184 -2.0303,-0.5622 -3.2482,-0.6031 -0.9376,-0.0314 -1.6617,-0.5626 -2.4271,0.3564 -0.3794,0.4554 -0.5801,1.3962 -0.9763,1.7455 -0.5105,0.6599 -0.1132,1.5253 -1.1953,1.7546 -0.8281,0.1755 -1.5988,0.9665 -2.2993,1.0692 -0.4957,0.0727 -0.923,-0.0307 -1.3321,0.3564 -0.5011,0.474 -0.1166,1.4736 0.1733,1.974 0.3772,0.6509 -0.2689,1.3337 -0.5383,1.8551 -0.2346,0.7092 -0.1563,0.7143 -0.958,0.8774 -0.4265,0.0868 -0.9252,0.4959 -1.1041,0.8955 -0.1596,0.3563 0.0528,0.6112 -0.3741,0.8499 -0.4513,0.2522 -0.6307,0.7851 -0.6113,1.2795 0.0832,2.1184 -3.2649,0.8667 -4.3614,0.4203 -1.0263,-1.6719 -2.327,-3.0227 -3.1296,-4.8252 -0.3136,-0.7045 -0.6321,-0.624 -1.1406,-1.0783 -0.5894,-0.228 -2.307,-1.6023 -2.7646,-1.4805 -0.6477,0.1723 0.3617,1.7113 -1.5329,1.1972 -0.8447,-0.2291 -0.7662,-0.0911 -1.5055,0.3655 -0.3466,0.2141 -0.7914,0.0428 -1.0402,0.2559 -0.527,0.4512 -0.8894,2.1933 -1.4963,2.1933 -0.5563,0 -2.469,-0.5326 -2.637,-1.051 -0.1685,-0.5196 -0.8946,-0.5293 -1.3412,-0.923 -0.651,-0.3611 -0.6482,-0.4853 -0.8486,-1.1423 -0.0259,-0.085 -0.9949,-0.9316 -1.0858,-0.9596 -0.512,-0.1576 -0.6661,0.2217 -1.1405,0.2011 -0.6708,-0.0291 -0.85,-0.2746 -1.6241,-0.0366 -0.6193,0.1903 -1.1201,0.859 -1.6971,0.859 -0.3082,0 -0.6919,0.01 -0.949,0.2011 -0.3688,0.2743 0.0092,0.7231 -0.3741,1.0327 -0.4252,0.3436 -0.9818,0.2142 -1.4598,0.4386l0 0c-0.7526,0.2845 -1.3684,0.4295 -2.1625,0.4295 -0.758,0 -1.5689,0.3812 -2.3358,0.2833 -0.4155,-0.0531 -1.0118,-0.334 -1.3869,-0.3107 -0.9628,-0.5622 -1.3769,-0.4555 -2.3997,-0.6123 -0.7916,-0.1214 -0.8675,-0.7749 -1.7153,-0.6123 -0.4252,0.0816 -0.9647,-0.6223 -1.2227,-0.8955 -0.4681,-0.4958 -0.9519,-0.5958 -1.5967,-0.7037 -0.9896,-0.1655 -2.0139,0.1493 -2.9107,-0.0823 -0.2729,-0.0705 -0.8028,-0.3492 -1.0493,-0.3107 -0.5385,-0.1235 -0.6168,-0.4996 -1.0675,-0.6671 -0.4743,-0.1762 -0.9139,0.0122 -1.3869,0.064 -1.1567,0.1267 -1.9451,-0.3975 -2.9654,-0.6123 -0.5562,-0.1171 -1.0338,0.1903 -1.5238,-0.1645 -0.7885,-0.5708 -1.252,-0.5235 -2.1624,-0.3839 -0.471,0.0722 -0.4346,-0.3873 -0.7938,-0.4569 -0.5958,-0.1156 -0.6309,0.0468 -1.1406,-0.4021 -0.4008,-0.8038 -1.3404,-0.419 -1.989,-0.9321 -0.894,-0.7073 -1.3245,-0.4939 -2.2172,-0.8682 -0.6506,-0.2729 -0.7077,-0.6989 -1.5512,-0.6854l-2.8467 0.0457c-1.1219,0.018 -1.4396,-1.5551 -2.6826,-1.3069 -0.5039,-0.1671 -1.3618,0.2495 -1.6697,0.0183 -0.7667,-0.5759 -0.3942,-0.2559 -1.3504,-0.2559 -0.4123,0 -0.6102,-0.404 -0.8577,-0.6671 -0.4054,-0.4307 -0.9153,-0.4173 -1.4599,-0.4935 -0.399,-0.0559 -0.3769,-0.2442 -0.666,-0.3655 -0.8129,-0.3409 -1.8076,0.3297 -2.6735,0.1462 -0.3298,-0.0698 -0.8396,-0.3596 -1.1405,-0.1005 -0.5165,0.4449 -0.7933,0.4521 -1.4143,0.5117 -0.1138,-0.0324 -0.7765,-0.3881 -0.7573,-0.466 -0.9894,-0.5693 -1.3635,-0.1887 -2.4635,-0.2833l-2.6552 -0.2285c-0.6125,-0.0526 -1.0124,-0.3318 -1.6789,-0.2285 -0.8485,0.1316 -1.5736,0.6305 -2.3266,0.9962 -0.7867,0.0597 -1.48,0.132 -2.126,0.5391 -0.6286,0.396 -1.3165,0.1507 -1.8431,-0.3015 -0.8575,-0.7362 -3.0137,-0.0092 -3.8413,0.6123 -0.7734,0.5809 -1.7964,0.6311 -2.6461,0.9595l-1.7518 0.064 0 0 -0.7842 0.8407c-0.3894,1.6876 -3.3522,2.1566 -4.5718,2.7782 -0.698,0.3558 -1.5565,1.403 -2.0621,2.0288 -0.6549,0.8105 -1.8403,1.2767 -2.7372,1.7912 -0.4179,0.3677 -0.9644,0.5736 -1.4052,1.0144 -0.8244,0.8244 -0.7208,1.8903 -0.7208,2.9883 0,0.6109 -0.1793,1.0351 -0.3193,1.5993 -0.1456,0.5863 -0.0485,1.3106 -0.0092,1.91 0.1642,0.1506 0.1982,0.6275 0.3011,0.859 0.2367,0.5329 0.7671,0.9517 1.1679,1.3525 1.4137,1.4137 2.1256,3.2639 1.6607,5.2913 0.1669,0.5968 0.1264,1.4795 0.2189,2.1111 0.0669,0.4573 0.1453,1.1368 -0.0821,1.5535 -0.3597,0.6594 0.0398,1.6331 -0.3193,2.3121 -0.3568,0.6745 -1.2154,1.022 -1.6424,1.7547 0.0553,0.161 0.0166,0.3922 0.0548,0.5757 0.073,0.3511 0.3267,0.6533 0.4379,0.9961 0.0883,0.2725 -0.0017,0.5571 0.1278,0.8316 0.1648,0.349 0.4637,0.616 0.5565,0.987 0.1114,0.4448 0.0913,0.9673 0.0913,1.4348l-0.0367 0.7043 0 0 -0.5382 0.7305c-0.0072,0.2264 -0.4989,0.5179 -0.5839,0.8498 -0.1593,0.6225 -0.1778,1.4948 -0.657,1.974 -0.3284,0.3284 -1.1346,0.3397 -1.323,0.7494 -2.1803,4.7402 -5.3074,2.1507 -7.6096,3.2442 -0.5492,0.2608 -0.8027,1.2719 -0.8303,1.8826 -0.0355,0.7827 -0.4196,1.6547 -0.657,2.4126 -0.9416,2.9303 1.0949,4.9906 1.0949,7.8227 0.2017,0.6949 -0.0421,1.4852 0.2464,2.2116 0.3679,0.9259 1.1467,1.2804 1.0949,2.3669 -0.0538,1.1301 -0.5637,2.0806 -1.2044,3.0066 -0.012,0.0297 -0.0233,0.094 -0.0547,0.1097 -0.0563,0.3917 -0.8612,0.9452 -1.1588,1.2428 -0.7783,0.7783 -0.8403,2.4464 -0.6387,3.4362 0.2479,1.2177 1.4222,1.9298 1.104,3.3173 0.0525,0.6174 -0.4866,1.0686 -0.8029,1.5536 -0.529,0.8114 -0.9485,1.793 -1.3322,2.6959 -0.2104,0.495 -0.4758,1.0626 -0.3923,1.6084 0.1045,0.6823 0.2831,1.0671 0.0091,1.7821l-1.2956 3.7651c-0.253,0.7355 -0.4931,1.4294 -0.9033,2.0836 -0.4152,0.662 -0.861,1.2379 -0.9125,2.0562 1.4942,3.8682 -1.8845,5.6592 -4.8906,6.9728 -0.4995,0.6588 -1.5141,0.5873 -1.9891,1.4805l-1.1131 2.0928c-0.288,0.5415 -0.6561,0.8242 -1.1406,1.188 -0.6039,0.4536 -0.9464,1.3685 -1.6058,1.645 -1.1787,0.4944 -1.6568,0.417 -2.7191,1.3068 -0.6017,1.8131 0.3065,3.3598 -1.0401,5.0263 -0.8659,1.0717 -3.522,1.4806 -3.522,2.9792 0.6254,0.9061 1.5038,2.6605 1.0858,3.7925 -0.5618,1.5218 -1.0815,2.3442 -0.1186,3.8748 0.8996,0.9012 0.3569,1.3938 -0.5475,1.846 -0.5066,0.2532 -0.785,2.773 -0.5657,3.2717 0.2592,0.5891 0.7573,0.2943 0.7573,1.124 0,0.5401 0.3285,0.8369 0.3285,1.4988l0.0182 0.2193c-0.5123,1.3788 -0.9612,2.5877 -1.9343,3.756 -1.0432,1.2523 -2.2419,2.6208 -1.1314,4.2404 1.029,0.9062 2.0015,2.1778 2.3449,3.5092 0.4019,1.5587 -0.2873,2.8086 1.3048,3.9662 0.453,1.1168 -0.3355,2.0283 -0.8212,3.0615 -0.618,1.3148 -1.4177,2.6359 -1.4964,4.1215 -0.185,0.2341 -0.2779,1.2684 -0.3649,1.6267 -0.2641,1.0875 -0.6705,1.1467 -1.3778,1.8003 -0.4668,0.4312 -0.7713,0.6985 -0.4745,1.4074 0.4228,1.0099 0.7334,1.6304 -0.6113,1.8186 -1.5549,0.2177 -1.606,0.6443 -0.9945,2.1293 0.1247,0.1027 0.1897,0.2829 0.2372,0.4386 0.0793,0.2594 0.2558,0.5337 0.3741,0.786 0.1326,0.2827 0.3368,0.6551 0.5383,0.8864l0.1314 0.1289 0 0 0.5752 0.2738c0.0662,0.0712 0.1671,0.1341 0.3245,0.1822 0.2208,0.0674 0.4391,0.1375 0.6295,0.2742 0.5496,0.3948 0.6176,0.9168 0.7117,1.5535 0.0642,0.4347 0.1494,0.8242 0.2646,1.2246 0.2629,0.9134 1.0282,1.0006 1.5205,1.4677 0.0865,-0.3186 0.1492,-0.6447 0.2595,-0.9559 0.049,-0.1383 0.0288,-0.0937 0.054,-0.1005 0.3379,-0.0914 0.3678,-0.5548 0.2464,-0.8134 -0.1989,-0.4235 0.1191,-0.5032 0.146,-0.8864 0.0191,-0.2734 -0.1106,-0.498 -0.0365,-0.7403 0.0815,-0.2667 0.3923,-0.2764 0.3923,-0.658 0,-0.5848 -0.0302,-1.3379 0.584,-1.6449 0.6844,-0.3421 1.2217,0.6703 2.1168,0.3107 0.4344,-0.1745 0.6419,-0.0888 1.0675,0 0.5974,0.1247 0.6877,-0.1446 1.0949,-0.4752 0.2335,-0.1896 1.0238,-0.2326 1.3961,-0.4295 0.6456,-0.3415 0.5988,0.2744 1.1314,0.1919 0.4409,-0.0683 0.8134,-0.2021 1.2409,0 0.7307,0.3456 1.1837,-0.0156 1.8522,0.7037 0.7069,0.7605 0.6241,0.1526 1.323,0.4386 0.3402,0.1392 0.5347,0.6123 0.9216,0.6123 0.6834,0 0.7774,-0.4365 1.542,-0.0091 0.5214,0.2915 1.0668,0.0363 1.2956,-0.5209 0.0615,-0.1498 0.9596,-1.0327 1.0858,-1.0327 1.1937,0 1.8113,-0.7139 2.865,-1.2977 0.2652,-0.1469 0.8395,-0.3218 0.8395,-0.7037 0,-0.2384 -0.1846,-0.6267 0.0273,-0.8225 0.2599,-0.2401 0.5736,-0.8559 0.8577,-0.8407 1.4367,0.0773 1.0519,-1.7693 1.9344,-1.4805 1.4394,0.4711 1.1042,-0.696 2.0529,-0.7128 0.3632,-0.0064 0.6938,0.0581 1.0767,-0.0366 0.6692,-0.1656 0.8916,-0.2667 1.4416,0.1463 0.4724,0.3548 0.7581,0.3337 1.2774,0.5209 0.7584,0.2735 1.2589,0.8076 2.1625,0.6488 0.4196,-0.0737 0.7015,-0.5359 1.0949,-0.7219 0.2899,-0.1371 0.7894,0.1756 1.1131,0.0548 0.3308,-0.1235 0.9422,-0.8882 1.2501,-0.9413 0.7906,-0.1366 1.8814,0.2664 2.573,-0.2924 0.5767,-0.466 0.7168,-0.9827 1.5055,-1.1789 0.7468,-0.1858 0.694,-0.2193 1.2318,-0.7585 0.2178,-0.2184 1.7138,-0.65 1.9617,-0.5484 0.2345,0.0961 0.1831,0.5316 0.3924,0.7037 0.439,0.3611 1.0479,0.2395 1.4872,-0.0548 0.5629,-0.3771 0.788,-0.2307 1.396,-0.3473l0.3321 0.6974c0.7459,0.9437 1.5184,0.5503 2.4417,0.9841 0.4998,0.2347 1.122,1.2353 1.7245,0.8408 0.7305,-0.4782 0.5997,-0.5991 1.177,0.0274 0.8284,0.8992 1.4694,0.8865 2.4818,1.4257 0.8436,0.4494 1.4548,1.288 2.4636,1.2245 0.7176,-0.0433 0.6478,0.2387 1.323,-0.2284 0.5884,-0.4072 1.8191,-1.1014 2.3084,-0.3107 0.4476,0.7234 0.7778,0.7733 1.4417,1.2337 0.3748,0.26 0.6636,0.7252 1.104,0.8225 1.0454,0.2312 0.4034,0.943 0.6935,1.5992 0.3719,0.8414 0.9711,0.2142 1.0858,1.581 0.3737,0.3904 0.6829,0.9791 1.0675,1.4165 0.5229,0.5945 1.0747,1.1184 1.7336,1.5262 0.5205,0.3219 1.2826,0.2832 1.834,0.5574 0,0.5683 0.0678,1.1748 -0.0639,1.7364 -0.2068,0.882 0.24,1.4548 0.511,2.2664 0.6648,1.1664 -0.938,3.0657 1.0128,3.8839 1.0084,0.423 0.5499,1.2908 1.3321,2.0197 0.2538,0.2366 0.7109,0.4903 1.0128,0.6762 0.4682,0.2885 0.6955,0.8621 1.2135,1.0784 0.709,0.2297 1.7305,0.5495 2.3267,0.987 0.415,0.3044 0.5493,0.9807 1.0037,1.2337 0.6064,0.3378 1.1252,0.3052 1.7062,0.7768 0.2216,0.1798 0.443,0.2512 0.657,0.4661 0.1973,0.1982 0.7635,0.9591 1.4105,1.0246l0 0c0.0294,-0.1014 0.0588,-0.2075 0.0859,-0.321 0.3409,-1.4232 -1.1574,-1.6709 -1.688,-2.6319 -0.5491,-0.9945 0.2333,-2.2764 -0.8942,-2.9335 -0.7119,-0.4149 -1.1805,-0.7951 -1.2592,-1.5627 -0.2033,-1.9831 -0.7152,-3.8693 1.0858,-5.1908 1.1744,-0.8617 3.3573,-1.605 4.106,-2.8696 0.2869,-0.4846 0.8282,-0.7014 1.3321,-0.9869 0.8545,-0.4843 1.7093,-0.9687 2.5639,-1.4531 0.9612,-0.5447 1.4656,-1.3304 2.126,-2.1659 0.3978,-0.5034 0.2531,-1.3619 0.3832,-2.0013 0.2312,-1.136 0.7988,-2.0326 0.7299,-3.2443 -0.0147,-0.2601 -0.2975,-0.5338 -0.5109,-0.6762 -0.5837,-0.3896 -0.7059,-0.5989 -0.9033,-1.2337 -0.1841,-0.5918 -0.2038,-1.2795 0.7664,-1.2795 0.3735,0 0.7593,0.0017 1.1438,-0.0176l0 0zm-103.749 -157.29l200.793 0 0 190 -200.793 0 0 -190z"/>
  <polygon class="fil1 str1" points="171.391,181.767 204.836,181.767 204.836,197.696 171.391,197.696 "/>
  <path class="fil2" d="M184.307 183.432l0 0.0641c-0.1511,0.0147 -0.2751,0.0447 -0.371,0.0905 -0.0958,0.0453 -0.1905,0.1141 -0.284,0.2076 -0.0934,0.0929 -0.1711,0.1964 -0.2328,0.3104 -0.0611,0.1147 -0.1129,0.2505 -0.154,0.4075 0.1652,-0.1135 0.331,-0.1705 0.498,-0.1705 0.1593,0 0.2981,0.0647 0.4151,0.1928 0.117,0.1288 0.1758,0.294 0.1758,0.4963 0,0.1952 -0.0594,0.3733 -0.1776,0.5339 -0.1423,0.1952 -0.331,0.2928 -0.565,0.2928 -0.1599,0 -0.2952,-0.053 -0.4069,-0.1582 -0.2181,-0.2058 -0.3269,-0.4721 -0.3269,-0.7996 0,-0.2088 0.0417,-0.4075 0.1258,-0.5957 0.0835,-0.1887 0.2035,-0.3557 0.3593,-0.5015 0.1552,-0.1458 0.3045,-0.244 0.4468,-0.2946 0.1423,-0.0505 0.2752,-0.0758 0.3981,-0.0758l0.0993 0zm-1.0712 1.2059c-0.0206,0.1552 -0.0312,0.2805 -0.0312,0.3757 0,0.11 0.0206,0.2299 0.0612,0.3593 0.0411,0.1287 0.1017,0.2316 0.1822,0.3075 0.0582,0.0535 0.1294,0.0805 0.2135,0.0805 0.0999,0 0.1893,-0.047 0.2675,-0.1411 0.0788,-0.0941 0.1182,-0.2287 0.1182,-0.4033 0,-0.1964 -0.0388,-0.3663 -0.117,-0.5098 -0.0782,-0.1435 -0.1888,-0.2152 -0.3328,-0.2152 -0.0435,0 -0.09,0.0094 -0.14,0.0276 -0.0499,0.0183 -0.124,0.0583 -0.2216,0.1188z"/>
  <path id="1" class="fil2" d="M184.617 184.662c0,-0.2663 0.04,-0.4956 0.1205,-0.6879 0.0806,-0.1923 0.187,-0.3357 0.3205,-0.4298 0.1034,-0.0747 0.2099,-0.1123 0.3204,-0.1123 0.1787,0 0.3399,0.0917 0.4821,0.274 0.1782,0.2264 0.267,0.5327 0.267,0.9202 0,0.271 -0.0388,0.5009 -0.117,0.6902 -0.0782,0.1899 -0.1776,0.3275 -0.2987,0.4128 -0.1211,0.0858 -0.2381,0.1282 -0.351,0.1282 -0.2223,0 -0.4081,-0.1312 -0.5562,-0.3946 -0.1253,-0.2216 -0.1876,-0.4886 -0.1876,-0.8008zm0.3375 0.0429c0,0.3217 0.0394,0.5845 0.1188,0.7873 0.0652,0.1711 0.1634,0.257 0.2928,0.257 0.0623,0 0.1264,-0.0283 0.1928,-0.0835 0.067,-0.0559 0.1176,-0.1494 0.1517,-0.2799 0.0529,-0.1975 0.0794,-0.4762 0.0794,-0.8355 0,-0.2663 -0.0277,-0.4886 -0.0829,-0.6667 -0.0412,-0.1323 -0.0947,-0.2258 -0.1599,-0.2811 -0.0471,-0.0376 -0.1041,-0.0564 -0.1706,-0.0564 -0.0782,0 -0.1475,0.0347 -0.2087,0.1046 -0.0823,0.0953 -0.1387,0.2452 -0.1687,0.4498 -0.03,0.2046 -0.0447,0.4057 -0.0447,0.6044z"/>
  <path id="12" class="fil2" d="M187.712 183.367l0 1.5693 0.4016 -0.3651c0.0852,-0.0782 0.1346,-0.1276 0.1481,-0.1482 0.0095,-0.0141 0.0136,-0.0276 0.0136,-0.0411 0,-0.0236 -0.0094,-0.043 -0.0283,-0.06 -0.0188,-0.0165 -0.0499,-0.0259 -0.094,-0.0282l0 -0.0553 0.6855 0 0 0.0553c-0.094,0.0023 -0.1722,0.0164 -0.2346,0.0429 -0.0629,0.0264 -0.1317,0.0735 -0.2063,0.1417l-0.4046 0.3733 0.4046 0.5116c0.1129,0.1417 0.1887,0.231 0.2275,0.2693 0.0553,0.0535 0.1035,0.0887 0.1446,0.1046 0.0289,0.0118 0.0788,0.0177 0.15,0.0177l0 0.0617 -0.7667 0 0 -0.0617c0.0441,-0.0012 0.0735,-0.0083 0.0888,-0.02 0.0158,-0.0124 0.0235,-0.0288 0.0235,-0.0512 0,-0.0264 -0.023,-0.0688 -0.0688,-0.127l-0.4845 -0.6185 0 0.5233c0,0.1023 0.0076,0.1699 0.0218,0.2016 0.0141,0.0324 0.0346,0.0553 0.0611,0.0688 0.0265,0.0141 0.0841,0.0218 0.1723,0.023l0 0.0617 -0.8026 0 0 -0.0617c0.0805,0 0.1405,-0.01 0.1805,-0.0294 0.0241,-0.013 0.0429,-0.0324 0.0553,-0.0588 0.017,-0.0377 0.0258,-0.1035 0.0258,-0.1964l0 -1.4364c0,-0.1829 -0.0041,-0.2946 -0.0117,-0.3352 -0.0082,-0.0405 -0.0218,-0.0687 -0.04,-0.0846 -0.0182,-0.0153 -0.0423,-0.023 -0.0723,-0.023 -0.0241,0 -0.06,0.0095 -0.1082,0.0294l-0.0294 -0.0605 0.4686 -0.1929 0.0788 0z"/>
  <path id="123" class="fil2" d="M189.478 184.528c0.1152,-0.1153 0.1828,-0.1811 0.2034,-0.1982 0.0517,-0.0441 0.1076,-0.0776 0.167,-0.1017 0.06,-0.0241 0.1187,-0.0365 0.1775,-0.0365 0.0988,0 0.1841,0.0289 0.2552,0.0865 0.0712,0.057 0.1188,0.1405 0.1429,0.2499 0.1182,-0.1382 0.2181,-0.2288 0.2999,-0.2717 0.0811,-0.0429 0.1652,-0.0647 0.251,-0.0647 0.0841,0 0.1582,0.0218 0.2234,0.0647 0.0647,0.0429 0.1159,0.1135 0.1541,0.2111 0.0253,0.0664 0.0376,0.1711 0.0376,0.3134l0 0.6791c0,0.0988 0.0077,0.1664 0.0224,0.2028 0.0117,0.0253 0.0329,0.0471 0.0641,0.0647 0.0311,0.0177 0.0811,0.0271 0.1517,0.0271l0 0.0617 -0.7791 0 0 -0.0617 0.0329 0c0.0676,0 0.1206,-0.0136 0.1588,-0.04 0.0264,-0.0182 0.0452,-0.0476 0.0564,-0.0876 0.0047,-0.0194 0.0071,-0.0753 0.0071,-0.167l0 -0.6791c0,-0.1288 -0.0153,-0.2193 -0.0465,-0.2722 -0.0447,-0.0735 -0.1164,-0.11 -0.2152,-0.11 -0.0611,0 -0.1223,0.0153 -0.1834,0.0453 -0.0618,0.0306 -0.1358,0.087 -0.2234,0.1699l-0.0036 0.0188 0.0036 0.0741 0 0.7532c0,0.1076 0.0064,0.1746 0.0182,0.2011 0.0123,0.0264 0.0347,0.0488 0.0682,0.0664 0.0329,0.0177 0.0899,0.0271 0.1705,0.0271l0 0.0617 -0.7979 0 0 -0.0617c0.0876,0 0.1476,-0.0106 0.1805,-0.0312 0.0324,-0.0206 0.0553,-0.0517 0.0676,-0.0929 0.0059,-0.02 0.0089,-0.0764 0.0089,-0.1705l0 -0.6791c0,-0.1288 -0.0188,-0.2211 -0.0571,-0.2769 -0.0505,-0.0735 -0.1211,-0.1106 -0.2116,-0.1106 -0.0624,0 -0.1235,0.0165 -0.1847,0.05 -0.0952,0.0506 -0.1687,0.1076 -0.2204,0.1705l0 0.8461c0,0.1029 0.0076,0.1705 0.0217,0.2011 0.0141,0.0311 0.0359,0.0547 0.0635,0.0699 0.0282,0.0153 0.0853,0.0236 0.1717,0.0236l0 0.0617 -0.7802 0 0 -0.0617c0.0723,0 0.1229,-0.0083 0.1517,-0.0236 0.0282,-0.0152 0.0505,-0.0399 0.0652,-0.074 0.0147,-0.0341 0.0224,-0.0994 0.0224,-0.197l0 -0.6033c0,-0.1734 -0.0053,-0.2851 -0.0153,-0.3357 -0.0082,-0.0382 -0.0212,-0.0641 -0.0382,-0.0782 -0.0171,-0.0147 -0.0406,-0.0217 -0.0706,-0.0217 -0.0323,0 -0.0705,0.0088 -0.1152,0.0258l-0.0259 -0.0623 0.4751 -0.1929 0.0741 0 0 0.3364z"/>
  <path class="fil2" d="M186.074 194.654l0 0.2446 -0.3134 0 0 0.6168 -0.2846 0 0 -0.6168 -0.9883 0 0 -0.2205 1.0836 -1.5469 0.1893 0 0 1.5228 0.3134 0zm-0.598 0l0 -1.1594 -0.8196 1.1594 0.8196 0z"/>
  <path id="1" class="fil2" d="M186.324 194.361c0,-0.2663 0.04,-0.4956 0.1205,-0.6879 0.0806,-0.1923 0.187,-0.3357 0.3205,-0.4298 0.1034,-0.0747 0.2099,-0.1123 0.3204,-0.1123 0.1787,0 0.3399,0.0917 0.4821,0.274 0.1782,0.2264 0.267,0.5327 0.267,0.9202 0,0.271 -0.0388,0.5009 -0.117,0.6902 -0.0782,0.1899 -0.1776,0.3275 -0.2987,0.4128 -0.1211,0.0858 -0.2381,0.1282 -0.351,0.1282 -0.2223,0 -0.4081,-0.1312 -0.5562,-0.3946 -0.1253,-0.2216 -0.1876,-0.4886 -0.1876,-0.8008zm0.3375 0.0429c0,0.3217 0.0394,0.5845 0.1188,0.7873 0.0652,0.1711 0.1634,0.257 0.2928,0.257 0.0623,0 0.1264,-0.0283 0.1928,-0.0835 0.067,-0.0559 0.1176,-0.1494 0.1517,-0.2799 0.0529,-0.1975 0.0794,-0.4762 0.0794,-0.8355 0,-0.2663 -0.0277,-0.4886 -0.0829,-0.6667 -0.0412,-0.1323 -0.0947,-0.2258 -0.1599,-0.2811 -0.0471,-0.0376 -0.1041,-0.0564 -0.1706,-0.0564 -0.0782,0 -0.1475,0.0347 -0.2087,0.1046 -0.0823,0.0953 -0.1387,0.2452 -0.1687,0.4498 -0.03,0.2046 -0.0447,0.4057 -0.0447,0.6044z"/>
  <path id="12" class="fil2" d="M189.42 194.227c0.1152,-0.1153 0.1828,-0.1811 0.2034,-0.1982 0.0517,-0.0441 0.1076,-0.0776 0.167,-0.1017 0.06,-0.0241 0.1187,-0.0365 0.1775,-0.0365 0.0988,0 0.1841,0.0289 0.2552,0.0865 0.0712,0.057 0.1188,0.1405 0.1429,0.2499 0.1182,-0.1382 0.2181,-0.2288 0.2999,-0.2717 0.0811,-0.0429 0.1652,-0.0647 0.251,-0.0647 0.0841,0 0.1582,0.0218 0.2234,0.0647 0.0647,0.0429 0.1159,0.1135 0.1541,0.2111 0.0253,0.0664 0.0376,0.1711 0.0376,0.3134l0 0.6791c0,0.0988 0.0077,0.1664 0.0224,0.2028 0.0117,0.0253 0.0329,0.0471 0.0641,0.0647 0.0311,0.0177 0.0811,0.0271 0.1517,0.0271l0 0.0617 -0.7791 0 0 -0.0617 0.0329 0c0.0676,0 0.1206,-0.0136 0.1588,-0.04 0.0264,-0.0182 0.0452,-0.0476 0.0564,-0.0876 0.0047,-0.0194 0.0071,-0.0753 0.0071,-0.167l0 -0.6791c0,-0.1288 -0.0153,-0.2193 -0.0465,-0.2722 -0.0447,-0.0735 -0.1164,-0.11 -0.2152,-0.11 -0.0611,0 -0.1223,0.0153 -0.1834,0.0453 -0.0618,0.0306 -0.1358,0.087 -0.2234,0.1699l-0.0036 0.0188 0.0036 0.0741 0 0.7532c0,0.1076 0.0064,0.1746 0.0182,0.2011 0.0123,0.0264 0.0347,0.0488 0.0682,0.0664 0.0329,0.0177 0.0899,0.0271 0.1705,0.0271l0 0.0617 -0.7979 0 0 -0.0617c0.0876,0 0.1476,-0.0106 0.1805,-0.0312 0.0324,-0.0206 0.0553,-0.0517 0.0676,-0.0929 0.0059,-0.02 0.0089,-0.0764 0.0089,-0.1705l0 -0.6791c0,-0.1288 -0.0188,-0.2211 -0.0571,-0.2769 -0.0505,-0.0735 -0.1211,-0.1106 -0.2116,-0.1106 -0.0624,0 -0.1235,0.0165 -0.1847,0.05 -0.0952,0.0506 -0.1687,0.1076 -0.2204,0.1705l0 0.8461c0,0.1029 0.0076,0.1705 0.0217,0.2011 0.0141,0.0311 0.0359,0.0547 0.0635,0.0699 0.0282,0.0153 0.0853,0.0236 0.1717,0.0236l0 0.0617 -0.7802 0 0 -0.0617c0.0723,0 0.1229,-0.0083 0.1517,-0.0236 0.0282,-0.0152 0.0505,-0.0399 0.0652,-0.074 0.0147,-0.0341 0.0224,-0.0994 0.0224,-0.197l0 -0.6033c0,-0.1734 -0.0053,-0.2851 -0.0153,-0.3357 -0.0082,-0.0382 -0.0212,-0.0641 -0.0382,-0.0782 -0.0171,-0.0147 -0.0406,-0.0217 -0.0706,-0.0217 -0.0323,0 -0.0705,0.0088 -0.1152,0.0258l-0.0259 -0.0623 0.4751 -0.1929 0.0741 0 0 0.3364z"/>
  <path id="123" class="fil2" d="M192.097 193.066c0.0482,0 0.0894,0.0171 0.1235,0.0506 0.0335,0.0341 0.0506,0.0753 0.0506,0.1235 0,0.0482 -0.0171,0.0893 -0.0506,0.124 -0.0341,0.0341 -0.0753,0.0518 -0.1235,0.0518 -0.0482,0 -0.0893,-0.0177 -0.124,-0.0518 -0.0341,-0.0347 -0.0518,-0.0758 -0.0518,-0.124 0,-0.0482 0.0171,-0.0894 0.0512,-0.1235 0.0335,-0.0335 0.0752,-0.0506 0.1246,-0.0506zm0.1429 0.8249l0 1.2683c0,0.0988 0.0071,0.164 0.0218,0.197 0.0141,0.0329 0.0352,0.057 0.0635,0.0735 0.0282,0.0158 0.0799,0.0241 0.1546,0.0241l0 0.0617 -0.7667 0 0 -0.0617c0.077,0 0.1288,-0.0077 0.1546,-0.023 0.0265,-0.0147 0.0476,-0.0394 0.0629,-0.0741 0.0159,-0.0341 0.0236,-0.0999 0.0236,-0.1975l0 -0.6086c0,-0.1711 -0.0053,-0.2816 -0.0153,-0.3322 -0.0083,-0.037 -0.0212,-0.0623 -0.0382,-0.0764 -0.0171,-0.0147 -0.0406,-0.0217 -0.0706,-0.0217 -0.0323,0 -0.0711,0.0088 -0.117,0.0258l-0.0241 -0.0623 0.4751 -0.1929 0.0758 0z"/>
  <path class="fil2" d="M206.624 196.766c0,-0.1745 0.0447,-0.3448 0.1341,-0.5113 0.0898,-0.166 0.2178,-0.2958 0.3848,-0.3885 0.1665,-0.0927 0.3405,-0.1392 0.5216,-0.1392 0.1792,0 0.3514,0.0456 0.5165,0.1373 0.1655,0.0913 0.2939,0.2197 0.3852,0.3843 0.0917,0.1651 0.1373,0.3373 0.1373,0.5174 0,0.1802 -0.0456,0.3528 -0.1373,0.5174 -0.0913,0.1651 -0.2197,0.2935 -0.3852,0.3852 -0.1651,0.0922 -0.3373,0.1379 -0.5165,0.1379 -0.1811,0 -0.3551,-0.0466 -0.5216,-0.1397 -0.167,-0.0932 -0.295,-0.223 -0.3848,-0.3895 -0.0894,-0.166 -0.1341,-0.3368 -0.1341,-0.5113zm0.1722 0c0,0.1463 0.0376,0.2884 0.1124,0.4266 0.0748,0.1383 0.182,0.2465 0.3208,0.3246 0.1392,0.0781 0.2841,0.1171 0.4351,0.1171 0.1496,0 0.293,-0.0386 0.4304,-0.1152 0.1373,-0.0767 0.2446,-0.1839 0.3212,-0.3218 0.0767,-0.1378 0.1153,-0.2812 0.1153,-0.4313 0,-0.1496 -0.0386,-0.2935 -0.1153,-0.4313 -0.0766,-0.1378 -0.1839,-0.2446 -0.3212,-0.3208 -0.1374,-0.0762 -0.2808,-0.1143 -0.4304,-0.1143 -0.151,0 -0.2959,0.0386 -0.4351,0.1162 -0.1388,0.0776 -0.246,0.1858 -0.3208,0.3245 -0.0748,0.1388 -0.1124,0.2808 -0.1124,0.4257zm1.0362 -0.3335l0.0499 -0.1693c0.1147,0.0277 0.2065,0.0861 0.2747,0.1754 0.0686,0.0899 0.1025,0.1985 0.1025,0.326 0,0.1618 -0.0522,0.293 -0.1571,0.3942 -0.1044,0.1011 -0.2498,0.1519 -0.4351,0.1519 -0.1213,0 -0.2267,-0.023 -0.3165,-0.0691 -0.0894,-0.0461 -0.1571,-0.1115 -0.2023,-0.1962 -0.0456,-0.0851 -0.0682,-0.1825 -0.0682,-0.2916 0,-0.1223 0.0292,-0.2239 0.0875,-0.3048 0.0583,-0.0804 0.1373,-0.1359 0.2375,-0.1651l0.04 0.1641c-0.0682,0.0273 -0.1199,0.0683 -0.1566,0.1219 -0.0363,0.0536 -0.0541,0.1166 -0.0541,0.1895 0,0.1054 0.0376,0.1924 0.1129,0.2611 0.0752,0.0682 0.1834,0.1025 0.3236,0.1025 0.1406,0 0.2469,-0.0324 0.3194,-0.0969 0.0719,-0.0649 0.1081,-0.1486 0.1081,-0.2516 0,-0.0828 -0.024,-0.1552 -0.0719,-0.2178 -0.0475,-0.0626 -0.1124,-0.1039 -0.1943,-0.1242z"/>
  <path id="1" class="fil2" d="M208.678 193.811l-0.1849 0c0.1454,0.0927 0.2178,0.2291 0.2178,0.4093 0,0.1166 -0.032,0.2238 -0.0964,0.3217 -0.064,0.0978 -0.1538,0.1735 -0.2695,0.2276 -0.1153,0.0537 -0.2474,0.0805 -0.3975,0.0805 -0.1458,0 -0.2784,-0.0245 -0.3974,-0.0729 -0.119,-0.049 -0.2103,-0.1219 -0.2733,-0.2192 -0.0635,-0.0974 -0.0955,-0.2065 -0.0955,-0.3269 0,-0.088 0.0188,-0.1665 0.056,-0.2352 0.0371,-0.0692 0.0856,-0.1251 0.1453,-0.1684l-0.7248 0 0 -0.2465 2.0202 0 0 0.23zm-0.7305 0.7841c0.1877,0 0.3279,-0.0395 0.4205,-0.1185 0.0927,-0.079 0.1393,-0.1722 0.1393,-0.2799 0,-0.1081 -0.0447,-0.2003 -0.1332,-0.2761 -0.0884,-0.0757 -0.2239,-0.1138 -0.4059,-0.1138 -0.2004,0 -0.3471,0.0386 -0.4407,0.1157 -0.0941,0.0772 -0.1407,0.1722 -0.1407,0.2855 0,0.1101 0.0452,0.2023 0.135,0.2761 0.0899,0.0739 0.2319,0.111 0.4257,0.111z"/>
  <polygon id="12" class="fil2" points="208.072,193.288 207.823,193.288 207.823,192.525 208.072,192.525 "/>
  <path id="123" class="fil2" d="M208.678 192.251l-1.4633 0 0 -0.2215 0.2051 0c-0.0715,-0.0461 -0.1294,-0.1073 -0.1727,-0.1835 -0.0437,-0.0762 -0.0658,-0.1632 -0.0658,-0.2605 0,-0.1082 0.0226,-0.1971 0.0677,-0.2663 0.0452,-0.0696 0.1077,-0.1185 0.1886,-0.1467 -0.1707,-0.1162 -0.2563,-0.2667 -0.2563,-0.452 0,-0.1454 0.0404,-0.2569 0.1209,-0.3349 0.0804,-0.0781 0.2041,-0.1172 0.3711,-0.1172l1.0047 0 0 0.2465 -0.9219 0c-0.0993,0 -0.1708,0.008 -0.2145,0.024 -0.0433,0.0165 -0.0786,0.0456 -0.1054,0.0875 -0.0263,0.0423 -0.0399,0.0922 -0.0399,0.1491 0,0.103 0.0343,0.1881 0.103,0.2563 0.0682,0.0678 0.1778,0.1021 0.3283,0.1021l0.8504 0 0 0.2479 -0.9506 0c-0.1105,0 -0.1933,0.0202 -0.2484,0.0607 -0.055,0.0404 -0.0827,0.1063 -0.0827,0.1985 0,0.0696 0.0183,0.134 0.0555,0.1933 0.0366,0.0593 0.0903,0.1025 0.1608,0.1289 0.071,0.0268 0.1731,0.04 0.3062,0.04l0.7592 0 0 0.2478z"/>
  <path id="1234" class="fil2" d="M208.498 188.945c0.0781,0.0922 0.1331,0.1806 0.1655,0.2653 0.032,0.0851 0.048,0.1764 0.048,0.2737 0,0.1609 -0.039,0.2841 -0.1176,0.3707 -0.0785,0.0861 -0.1792,0.1293 -0.301,0.1293 -0.072,0 -0.1373,-0.016 -0.1966,-0.0489 -0.0593,-0.0324 -0.1068,-0.0752 -0.1425,-0.1279 -0.0358,-0.0532 -0.0631,-0.1124 -0.0814,-0.1788 -0.0127,-0.0484 -0.0254,-0.1218 -0.0372,-0.2201 -0.024,-0.2004 -0.0522,-0.3481 -0.0856,-0.4426 -0.0338,-0.001 -0.0555,-0.0014 -0.0644,-0.0014 -0.1011,0 -0.1726,0.0235 -0.2136,0.0705 -0.0564,0.0631 -0.0842,0.1576 -0.0842,0.2823 0,0.1166 0.0203,0.2027 0.0612,0.2587 0.0409,0.0555 0.1133,0.0964 0.2173,0.1232l-0.0334 0.2422c-0.1035,-0.0221 -0.1877,-0.0583 -0.2512,-0.1086 -0.0639,-0.0504 -0.1133,-0.1237 -0.1477,-0.2192 -0.0343,-0.0955 -0.0517,-0.206 -0.0517,-0.3321 0,-0.1251 0.015,-0.2262 0.0442,-0.3043 0.0296,-0.0781 0.0663,-0.1355 0.111,-0.1726 0.0447,-0.0367 0.1007,-0.0621 0.1689,-0.0772 0.0423,-0.008 0.1185,-0.0122 0.2286,-0.0122l0.3306 0c0.231,0 0.3768,-0.0052 0.4375,-0.016 0.0611,-0.0104 0.1199,-0.0315 0.1759,-0.0626l0 0.2592c-0.0513,0.0254 -0.1115,0.0423 -0.1806,0.0494zm-0.5541 0.0207c0.0371,0.0903 0.0682,0.2253 0.0941,0.405 0.0145,0.102 0.031,0.1745 0.0493,0.2163 0.0184,0.0424 0.0452,0.0753 0.081,0.0979 0.0352,0.023 0.0743,0.0348 0.1175,0.0348 0.0664,0 0.1214,-0.0254 0.1656,-0.0753 0.0438,-0.0498 0.0659,-0.1232 0.0659,-0.2196 0,-0.0955 -0.0207,-0.1807 -0.0626,-0.255 -0.0419,-0.0743 -0.0992,-0.1293 -0.1717,-0.1641 -0.056,-0.0268 -0.1387,-0.04 -0.2479,-0.04l-0.0912 0z"/>
  <path id="12345" class="fil2" d="M209.239 188.331l-2.024 0 0 -0.2257 0.19 0c-0.0743,-0.0532 -0.1303,-0.1134 -0.1674,-0.1807 -0.0372,-0.0668 -0.056,-0.1481 -0.056,-0.2436 0,-0.1251 0.0324,-0.2352 0.0964,-0.3307 0.0645,-0.0959 0.1552,-0.1679 0.2724,-0.2163 0.1171,-0.049 0.2455,-0.0734 0.3852,-0.0734 0.1496,0 0.2846,0.0268 0.4045,0.0809 0.1199,0.0536 0.2117,0.1317 0.2756,0.2342 0.0635,0.1026 0.0955,0.2103 0.0955,0.3232 0,0.0827 -0.0174,0.1566 -0.0522,0.2224 -0.0348,0.0659 -0.079,0.1195 -0.1322,0.1619l0.7122 0 0 0.2478zm-1.2841 -0.2243c0.1881,0 0.3274,-0.0381 0.4177,-0.1143 0.0898,-0.0762 0.135,-0.1689 0.135,-0.2771 0,-0.11 -0.0466,-0.2046 -0.1402,-0.2831 -0.0931,-0.0786 -0.2375,-0.1181 -0.4332,-0.1181 -0.1868,0 -0.326,0.0386 -0.4191,0.1152 -0.0927,0.0767 -0.1392,0.1684 -0.1392,0.2747 0,0.1059 0.0493,0.1995 0.1481,0.2808 0.0988,0.0814 0.2427,0.1219 0.4309,0.1219z"/>
  <path id="123456" class="fil2" d="M208.241 186.86l-0.0385 -0.2451c0.0983,-0.0136 0.1735,-0.0522 0.2262,-0.1152 0.0522,-0.0626 0.0786,-0.1505 0.0786,-0.2639 0,-0.1138 -0.0236,-0.1985 -0.0697,-0.2535 -0.0465,-0.0551 -0.1011,-0.0828 -0.1632,-0.0828 -0.0564,0 -0.1002,0.0245 -0.1326,0.0734 -0.0221,0.0338 -0.0499,0.1185 -0.0837,0.2535 -0.0461,0.1816 -0.0857,0.3081 -0.1195,0.3782 -0.0334,0.0701 -0.08,0.1237 -0.1392,0.1599 -0.0593,0.0362 -0.1247,0.0546 -0.1962,0.0546 -0.0654,0 -0.1256,-0.0151 -0.1811,-0.0452 -0.056,-0.0296 -0.102,-0.0705 -0.1387,-0.1218 -0.0283,-0.0386 -0.0527,-0.0913 -0.0725,-0.1576 -0.0197,-0.0668 -0.0296,-0.1383 -0.0296,-0.2145 0,-0.1147 0.0169,-0.2154 0.0499,-0.3024 0.0329,-0.087 0.0776,-0.151 0.134,-0.1924 0.0569,-0.0414 0.1322,-0.0696 0.2267,-0.0851l0.0334 0.2422c-0.0752,0.0113 -0.134,0.0433 -0.1764,0.096 -0.0423,0.0526 -0.0635,0.1274 -0.0635,0.2238 0,0.1139 0.0188,0.1952 0.0565,0.2437 0.0376,0.0489 0.0818,0.0734 0.1321,0.0734 0.0325,0 0.0612,-0.0104 0.0871,-0.0306 0.0268,-0.0202 0.0484,-0.0517 0.0663,-0.095 0.0089,-0.0249 0.0301,-0.0979 0.063,-0.2192 0.0471,-0.1755 0.0852,-0.2977 0.1153,-0.3669 0.0296,-0.0696 0.0733,-0.1242 0.1302,-0.1637 0.057,-0.0395 0.1275,-0.0592 0.2122,-0.0592 0.0828,0 0.1604,0.0244 0.2338,0.0724 0.0729,0.0484 0.1293,0.1181 0.1693,0.2088 0.04,0.0908 0.0597,0.1938 0.0597,0.3086 0,0.1905 -0.0395,0.3354 -0.1185,0.4351 -0.079,0.0997 -0.1961,0.1632 -0.3514,0.1905z"/>
  <polygon id="1234567" class="fil2" points="208.678,185.28 208.396,185.28 208.396,184.997 208.678,184.997 "/>
  <path id="12345678" class="fil2" d="M208.142 183.611l0.032 -0.2437c0.1679,0.0264 0.2996,0.0946 0.3946,0.2047 0.095,0.1095 0.1425,0.2445 0.1425,0.4045 0,0.1999 -0.0654,0.3612 -0.1961,0.4826 -0.1308,0.1218 -0.3185,0.1829 -0.563,0.1829 -0.1581,0 -0.2964,-0.0263 -0.4149,-0.0785 -0.1185,-0.0527 -0.2074,-0.1322 -0.2667,-0.2394 -0.0593,-0.1068 -0.0889,-0.2235 -0.0889,-0.349 0,-0.159 0.0404,-0.2893 0.1209,-0.39 0.0804,-0.1011 0.1942,-0.166 0.3424,-0.1947l0.0372 0.2413c-0.0983,0.023 -0.1722,0.0635 -0.222,0.1218 -0.0494,0.0583 -0.0744,0.1289 -0.0744,0.2117 0,0.1251 0.0447,0.2267 0.1346,0.3048 0.0893,0.0781 0.2309,0.1171 0.4247,0.1171 0.1966,0 0.3396,-0.0376 0.429,-0.1134 0.0889,-0.0752 0.1336,-0.1735 0.1336,-0.2949 0,-0.0973 -0.0301,-0.1783 -0.0899,-0.2436 -0.0597,-0.0654 -0.1514,-0.1068 -0.2756,-0.1242z"/>
  <path id="123456789" class="fil2" d="M207.946 183.247c-0.2709,0 -0.4718,-0.0753 -0.6021,-0.2262 -0.1081,-0.1256 -0.1627,-0.279 -0.1627,-0.4601 0,-0.2013 0.0658,-0.3659 0.198,-0.4934 0.1317,-0.1279 0.3138,-0.1914 0.5461,-0.1914 0.1886,0 0.3368,0.0282 0.4445,0.0846 0.1082,0.0565 0.1919,0.1388 0.2517,0.2465 0.0597,0.1082 0.0893,0.2258 0.0893,0.3537 0,0.2046 -0.0654,0.3702 -0.1971,0.4967 -0.1312,0.1266 -0.3203,0.1896 -0.5677,0.1896zm0 -0.2549c0.1877,0 0.3279,-0.041 0.421,-0.1228 0.0936,-0.0819 0.1402,-0.1849 0.1402,-0.3086 0,-0.1232 -0.0471,-0.2257 -0.1407,-0.3076 -0.0936,-0.0814 -0.2366,-0.1223 -0.4285,-0.1223 -0.1811,0 -0.3184,0.0409 -0.4116,0.1233 -0.0931,0.0823 -0.1397,0.1843 -0.1397,0.3066 0,0.1237 0.0466,0.2267 0.1393,0.3086 0.0926,0.0818 0.2328,0.1228 0.42,0.1228z"/>
  <path id="12345678910" class="fil2" d="M208.678 181.585l-1.4633 0 0 -0.2215 0.2051 0c-0.0715,-0.0461 -0.1294,-0.1073 -0.1727,-0.1835 -0.0437,-0.0762 -0.0658,-0.1632 -0.0658,-0.2605 0,-0.1082 0.0226,-0.1971 0.0677,-0.2663 0.0452,-0.0696 0.1077,-0.1185 0.1886,-0.1467 -0.1707,-0.1162 -0.2563,-0.2667 -0.2563,-0.452 0,-0.1454 0.0404,-0.2569 0.1209,-0.3349 0.0804,-0.0781 0.2041,-0.1172 0.3711,-0.1172l1.0047 0 0 0.2465 -0.9219 0c-0.0993,0 -0.1708,0.008 -0.2145,0.024 -0.0433,0.0165 -0.0786,0.0456 -0.1054,0.0875 -0.0263,0.0423 -0.0399,0.0922 -0.0399,0.1491 0,0.103 0.0343,0.1881 0.103,0.2563 0.0682,0.0678 0.1778,0.1021 0.3283,0.1021l0.8504 0 0 0.2479 -0.9506 0c-0.1105,0 -0.1933,0.0202 -0.2484,0.0607 -0.055,0.0404 -0.0827,0.1063 -0.0827,0.1985 0,0.0696 0.0183,0.134 0.0555,0.1933 0.0366,0.0593 0.0903,0.1025 0.1608,0.1289 0.071,0.0268 0.1731,0.04 0.3062,0.04l0.7592 0 0 0.2478z"/>
  <g id="_183218320">
   <polygon id="_183223432" class="fil3 str0" points="172.918,187.796 182.513,187.796 182.513,188.788 172.918,188.788 "/>
   <polygon id="_183226840" class="fil4 str0" points="182.513,187.796 192.109,187.796 192.109,188.788 182.513,188.788 "/>
   <polygon id="_183210736" class="fil3 str0" points="192.109,187.796 201.704,187.796 201.704,188.788 192.109,188.788 "/>
   <polygon id="_183240160" class="fil3 str0" points="188.298,190.785 203.645,190.785 203.645,191.777 188.298,191.777 "/>
   <polygon id="_183219856" class="fil4 str0" points="172.952,190.785 188.298,190.785 188.298,191.777 172.952,191.777 "/>
  </g>
  <rect class="fil5 str2" x="10" y="10" width="200.793" height="190"/>
 </g>
</svg>
